<svg xmlns="http://www.w3.org/2000/svg" xmlns:xlink="http://www.w3.org/1999/xlink" width="12" height="14" viewBox="0 0 12 14">
    <defs>
        <path id="a" d="M0 .07h7.98V5H0z"/>
        <path id="c" d="M4.091-.303c.633 0 1.173-.225 1.621-.673.448-.447.672-.988.672-1.62 0-.633-.224-1.174-.672-1.622a2.21 2.21 0 0 0-1.62-.672 2.21 2.21 0 0 0-1.622.672 2.21 2.21 0 0 0-.672 1.621c0 .633.224 1.174.672 1.621.448.448.988.673 1.621.673"/>
    </defs>
    <g fill="none" fill-rule="evenodd" transform="translate(2 7)">
        <mask id="b" fill="#fff">
            <use xlink:href="#a"/>
        </mask>
        <path fill="#6E6E6E" d="M7.96 2.852a6.28 6.28 0 0 0-.23-1.289 3.103 3.103 0 0 0-.243-.577 2.076 2.076 0 0 0-.351-.48A1.474 1.474 0 0 0 6.65.189 1.64 1.64 0 0 0 6.019.07c-.034 0-.113.043-.238.127-.125.086-.265.18-.422.285a2.62 2.62 0 0 1-.612.284 2.351 2.351 0 0 1-.757.128 2.35 2.35 0 0 1-.757-.128 2.604 2.604 0 0 1-.612-.284C2.464.378 2.324.282 2.2.197 2.074.113 1.995.07 1.961.07c-.23 0-.441.04-.632.119a1.47 1.47 0 0 0-.485.317C.712.638.595.798.494.986c-.103.187-.184.38-.245.577a6.28 6.28 0 0 0-.23 1.289c-.013.2-.019.404-.019.614 0 .473.138.848.414 1.122.276.275.642.412 1.1.412h4.953c.457 0 .823-.137 1.1-.412.275-.274.413-.649.413-1.122 0-.21-.007-.414-.02-.614" mask="url(#b)"/>
        <use fill="#6E6E6E" xlink:href="#c"/>
    </g>
</svg>
